# xmcd
#
# Track frame offsets:
#	150
#	18028
#	35813
#	54112
#	68074
#	82260
#	97165
#	111564
#	129003
#	148443
#	167789
#	180905
#	201560
#	217257
#	232481
#
# Disc length: 3333
#
# Revision: 2
# Processed by: cddbd v1.5.1PL0 Copyright (c) Steve Scherf et al.
# Submitted via: audiograbber 1.82.00
# Normalized: r1:DSETVAR1
#
DISCID=e90d030f
DTITLE=Various Artist - CDX 309 January 2003
DYEAR=2003
DGENRE=Country
TTITLE0=Willie NELSON w/ Jon Bon Jovi and Richie Sambora - Always On My Mind
TTITLE1=Chad MULLINS - Babies
TTITLE2=Kenny CHESNEY - Big Star
TTITLE3=John Michael MONTGOMERY - Country Thang (Single Edit)
TTITLE4=Anthony SMITH - Half A Man
TTITLE5=Sammy KERSHAW - I Want My Money Back
TTITLE6=RASCAL FLATTS - Love You Out Loud
TTITLE7=Ronnie BOWMAN - Rise Above
TTITLE8=Tim McGRAW - She's My Kind Of Rain
TTITLE9=Holly LAMAR - Unkissed
TTITLE10=WILD HORSES - You Gotta Ride
TTITLE11=Renee' McCRARY - Angel
TTITLE12=K.C. WILLIAMS - Charley's Boots
TTITLE13=Pat WATERS - I Knew
TTITLE14=JR SCHEMBRE - Land Of The Free
EXTD=
EXTT0=
EXTT1=
EXTT2=
EXTT3=
EXTT4=
EXTT5=
EXTT6=
EXTT7=
EXTT8=
EXTT9=
EXTT10=
EXTT11=
EXTT12=
EXTT13=
EXTT14=
PLAYORDER=
